<mxfile host="app.diagrams.net" modified="2022-01-06T00:34:05.436Z" agent="5.0 (Macintosh; Intel Mac OS X 10_12_4) AppleWebKit/537.36 (KHTML, like Gecko) Chrome/94.0.4606.71 Safari/537.36" etag="MprbIqzhxstYJQUGeOSm" version="16.2.2" type="github">
  <diagram id="zuWFAJXgjOLeMFyqs1LD" name="第 1 页">
    <mxGraphModel dx="786" dy="463" grid="1" gridSize="10" guides="1" tooltips="1" connect="1" arrows="1" fold="1" page="1" pageScale="1" pageWidth="1654" pageHeight="2336" math="0" shadow="0">
      <root>
        <mxCell id="0" />
        <mxCell id="1" parent="0" />
        <mxCell id="z8NbIOZ8HeaowrtKci4R-6" value="&lt;font size=&quot;1&quot;&gt;&lt;font style=&quot;font-size: 12px&quot; face=&quot;Verdana&quot; color=&quot;#808080&quot;&gt;Redcar&lt;/font&gt;&lt;br&gt;&lt;/font&gt;" style="text;html=1;align=center;verticalAlign=middle;resizable=0;points=[];autosize=1;strokeColor=none;fillColor=none;" parent="1" vertex="1">
          <mxGeometry x="496" y="158.5" width="60" height="20" as="geometry" />
        </mxCell>
        <mxCell id="8pleGha8yt2rqx1mjK0i-11" value="" style="shape=image;html=1;verticalAlign=top;verticalLabelPosition=bottom;labelBackgroundColor=#ffffff;imageAspect=0;aspect=fixed;image=https://cdn2.iconfinder.com/data/icons/Car_Icon_Set_BevelAndEmboss-Net/58/car.png;fontColor=#999999;fillColor=#66B2FF;" parent="1" vertex="1">
          <mxGeometry x="465" y="147.25" width="43" height="43" as="geometry" />
        </mxCell>
        <mxCell id="T6VgyswRJ6GRHiMwATem-1" value="" style="rounded=0;whiteSpace=wrap;html=1;rotation=90;fillColor=#d5e8d4;strokeColor=none;dashed=1;" vertex="1" parent="1">
          <mxGeometry x="-30" y="229.5" width="410" height="240" as="geometry" />
        </mxCell>
        <mxCell id="T6VgyswRJ6GRHiMwATem-2" value="&lt;font color=&quot;#808080&quot; style=&quot;font-size: 12px&quot; face=&quot;Verdana&quot;&gt;Event Sources&lt;/font&gt;" style="text;html=1;align=center;verticalAlign=middle;resizable=0;points=[];autosize=1;strokeColor=none;fillColor=none;" vertex="1" parent="1">
          <mxGeometry x="60" y="158.5" width="100" height="20" as="geometry" />
        </mxCell>
        <mxCell id="T6VgyswRJ6GRHiMwATem-3" value="" style="rounded=0;whiteSpace=wrap;html=1;rotation=90;fillColor=#f8cecc;strokeColor=none;dashed=1;" vertex="1" parent="1">
          <mxGeometry x="364" y="208.63" width="410" height="281.75" as="geometry" />
        </mxCell>
        <mxCell id="T6VgyswRJ6GRHiMwATem-4" value="&lt;font style=&quot;font-size: 12px&quot; face=&quot;Verdana&quot; color=&quot;#808080&quot;&gt;Event D&lt;/font&gt;&lt;font color=&quot;#808080&quot; face=&quot;Verdana&quot;&gt;riven&lt;/font&gt;" style="text;html=1;align=center;verticalAlign=middle;resizable=0;points=[];autosize=1;strokeColor=none;fillColor=none;" vertex="1" parent="1">
          <mxGeometry x="440" y="158.5" width="90" height="20" as="geometry" />
        </mxCell>
        <mxCell id="T6VgyswRJ6GRHiMwATem-5" value="" style="rounded=0;whiteSpace=wrap;html=1;rotation=90;fillColor=#dae8fc;strokeColor=none;dashed=1;" vertex="1" parent="1">
          <mxGeometry x="750" y="232.25" width="410" height="240" as="geometry" />
        </mxCell>
        <mxCell id="T6VgyswRJ6GRHiMwATem-6" value="&lt;font color=&quot;#808080&quot; face=&quot;Verdana&quot;&gt;Transaction&lt;/font&gt;" style="text;html=1;align=center;verticalAlign=middle;resizable=0;points=[];autosize=1;strokeColor=none;fillColor=none;" vertex="1" parent="1">
          <mxGeometry x="844" y="158.5" width="80" height="20" as="geometry" />
        </mxCell>
        <mxCell id="T6VgyswRJ6GRHiMwATem-7" style="edgeStyle=orthogonalEdgeStyle;rounded=0;orthogonalLoop=1;jettySize=auto;html=1;entryX=0.5;entryY=0;entryDx=0;entryDy=0;fontSize=24;fontColor=#FFE599;strokeColor=#808080;" edge="1" parent="1" source="T6VgyswRJ6GRHiMwATem-9" target="T6VgyswRJ6GRHiMwATem-11">
          <mxGeometry relative="1" as="geometry">
            <Array as="points">
              <mxPoint x="390" y="354" />
              <mxPoint x="390" y="290" />
              <mxPoint x="559" y="290" />
            </Array>
          </mxGeometry>
        </mxCell>
        <mxCell id="T6VgyswRJ6GRHiMwATem-8" value="&lt;font color=&quot;#808080&quot; style=&quot;font-size: 12px&quot;&gt;event trigger&lt;/font&gt;" style="edgeLabel;html=1;align=center;verticalAlign=middle;resizable=0;points=[];fontSize=24;fontColor=#FFE599;" vertex="1" connectable="0" parent="T6VgyswRJ6GRHiMwATem-7">
          <mxGeometry x="-0.5103" y="-2" relative="1" as="geometry">
            <mxPoint x="-5" y="-23" as="offset" />
          </mxGeometry>
        </mxCell>
        <mxCell id="T6VgyswRJ6GRHiMwATem-9" value="" style="rounded=0;whiteSpace=wrap;html=1;fontFamily=Verdana;fontSize=12;fontColor=#808080;strokeColor=#B3B3B3;" vertex="1" parent="1">
          <mxGeometry x="95" y="313.5" width="160" height="80" as="geometry" />
        </mxCell>
        <mxCell id="T6VgyswRJ6GRHiMwATem-10" value="&lt;font color=&quot;#4d4d4d&quot;&gt;Producer&lt;/font&gt;" style="text;html=1;align=center;verticalAlign=middle;resizable=0;points=[];autosize=1;strokeColor=none;fillColor=none;fontSize=12;fontFamily=Verdana;fontColor=#808080;" vertex="1" parent="1">
          <mxGeometry x="135" y="322.5" width="70" height="20" as="geometry" />
        </mxCell>
        <mxCell id="T6VgyswRJ6GRHiMwATem-11" value="" style="rounded=0;whiteSpace=wrap;html=1;fontFamily=Verdana;fontSize=12;fontColor=#808080;strokeColor=#B3B3B3;" vertex="1" parent="1">
          <mxGeometry x="488" y="309.5" width="142" height="110.5" as="geometry" />
        </mxCell>
        <mxCell id="T6VgyswRJ6GRHiMwATem-12" value="" style="rounded=0;whiteSpace=wrap;html=1;fontFamily=Verdana;fontSize=12;fontColor=#808080;strokeColor=#B3B3B3;" vertex="1" parent="1">
          <mxGeometry x="498" y="319.5" width="142" height="110.5" as="geometry" />
        </mxCell>
        <mxCell id="T6VgyswRJ6GRHiMwATem-13" style="edgeStyle=orthogonalEdgeStyle;rounded=0;orthogonalLoop=1;jettySize=auto;html=1;exitX=1;exitY=0.5;exitDx=0;exitDy=0;entryX=0;entryY=0.5;entryDx=0;entryDy=0;fontSize=12;fontColor=#808080;strokeColor=#808080;" edge="1" parent="1" source="T6VgyswRJ6GRHiMwATem-15" target="T6VgyswRJ6GRHiMwATem-22">
          <mxGeometry relative="1" as="geometry">
            <Array as="points">
              <mxPoint x="740" y="385" />
              <mxPoint x="740" y="368" />
            </Array>
          </mxGeometry>
        </mxCell>
        <mxCell id="T6VgyswRJ6GRHiMwATem-14" value="event action" style="edgeLabel;html=1;align=center;verticalAlign=middle;resizable=0;points=[];fontSize=12;fontColor=#808080;" vertex="1" connectable="0" parent="T6VgyswRJ6GRHiMwATem-13">
          <mxGeometry x="0.1498" y="3" relative="1" as="geometry">
            <mxPoint x="11" y="14" as="offset" />
          </mxGeometry>
        </mxCell>
        <mxCell id="T6VgyswRJ6GRHiMwATem-15" value="" style="rounded=0;whiteSpace=wrap;html=1;fontFamily=Verdana;fontSize=12;fontColor=#808080;strokeColor=#B3B3B3;" vertex="1" parent="1">
          <mxGeometry x="508" y="329.5" width="142" height="110.5" as="geometry" />
        </mxCell>
        <mxCell id="T6VgyswRJ6GRHiMwATem-16" value="" style="endArrow=none;html=1;fontFamily=Verdana;fontSize=12;fontColor=#808080;endFill=0;strokeColor=#B3B3B3;rounded=0;dashed=1;" edge="1" parent="1">
          <mxGeometry relative="1" as="geometry">
            <mxPoint x="519" y="359" as="sourcePoint" />
            <mxPoint x="639" y="359" as="targetPoint" />
          </mxGeometry>
        </mxCell>
        <mxCell id="T6VgyswRJ6GRHiMwATem-17" value="&lt;font color=&quot;#4d4d4d&quot;&gt;Redcar Server&lt;/font&gt;" style="text;html=1;align=center;verticalAlign=middle;resizable=0;points=[];autosize=1;strokeColor=none;fillColor=none;fontSize=12;fontFamily=Verdana;fontColor=#1A1A1A;" vertex="1" parent="1">
          <mxGeometry x="528" y="336.5" width="100" height="20" as="geometry" />
        </mxCell>
        <mxCell id="T6VgyswRJ6GRHiMwATem-18" value="" style="sketch=0;html=1;fillColor=#60a917;strokeColor=#2D7600;verticalAlign=top;labelPosition=center;verticalLabelPosition=bottom;align=center;spacingTop=-6;fontSize=11;fontStyle=1;fontColor=#ffffff;shape=mxgraph.gcp2.hexIcon;prIcon=cloud_pubsub;rounded=1;fontFamily=Verdana;" vertex="1" parent="1">
          <mxGeometry x="518" y="360.75" width="48" height="40" as="geometry" />
        </mxCell>
        <mxCell id="T6VgyswRJ6GRHiMwATem-19" value="" style="sketch=0;html=1;fillColor=#5184F3;strokeColor=none;verticalAlign=top;labelPosition=center;verticalLabelPosition=bottom;align=center;spacingTop=-6;fontSize=11;fontStyle=1;fontColor=#999999;shape=mxgraph.gcp2.hexIcon;prIcon=cloud_datastore;rounded=1;fontFamily=Verdana;" vertex="1" parent="1">
          <mxGeometry x="591" y="393" width="48" height="40" as="geometry" />
        </mxCell>
        <mxCell id="T6VgyswRJ6GRHiMwATem-20" value="" style="sketch=0;html=1;fillColor=#5184F3;strokeColor=none;verticalAlign=top;labelPosition=center;verticalLabelPosition=bottom;align=center;spacingTop=-6;fontSize=11;fontStyle=1;fontColor=#999999;shape=mxgraph.gcp2.hexIcon;prIcon=cloud_router;rounded=1;fontFamily=Verdana;" vertex="1" parent="1">
          <mxGeometry x="555" y="360.5" width="48" height="40" as="geometry" />
        </mxCell>
        <mxCell id="T6VgyswRJ6GRHiMwATem-21" value="" style="sketch=0;html=1;fillColor=#60a917;strokeColor=#2D7600;verticalAlign=top;labelPosition=center;verticalLabelPosition=bottom;align=center;spacingTop=-6;fontSize=11;fontStyle=1;fontColor=#ffffff;shape=mxgraph.gcp2.hexIcon;prIcon=cloud_routes;rounded=1;fontFamily=Verdana;" vertex="1" parent="1">
          <mxGeometry x="555" y="394" width="48" height="40" as="geometry" />
        </mxCell>
        <mxCell id="T6VgyswRJ6GRHiMwATem-22" value="" style="rounded=0;whiteSpace=wrap;html=1;fontFamily=Verdana;fontSize=12;fontColor=#808080;strokeColor=#B3B3B3;" vertex="1" parent="1">
          <mxGeometry x="875" y="337.5" width="160" height="60" as="geometry" />
        </mxCell>
        <mxCell id="T6VgyswRJ6GRHiMwATem-23" value="&lt;font color=&quot;#4d4d4d&quot;&gt;Consumer&lt;/font&gt;" style="text;html=1;align=center;verticalAlign=middle;resizable=0;points=[];autosize=1;strokeColor=none;fillColor=none;fontSize=12;fontFamily=Verdana;fontColor=#1A1A1A;" vertex="1" parent="1">
          <mxGeometry x="930" y="358.88" width="80" height="20" as="geometry" />
        </mxCell>
        <mxCell id="T6VgyswRJ6GRHiMwATem-24" value="" style="endArrow=none;html=1;fontFamily=Verdana;fontSize=12;fontColor=#808080;endFill=0;strokeColor=#B3B3B3;rounded=0;" edge="1" parent="1">
          <mxGeometry relative="1" as="geometry">
            <mxPoint x="104" y="344.5" as="sourcePoint" />
            <mxPoint x="244" y="344.5" as="targetPoint" />
          </mxGeometry>
        </mxCell>
        <mxCell id="T6VgyswRJ6GRHiMwATem-25" value="&lt;font color=&quot;#999999&quot;&gt;Auto pub events&lt;br&gt;via the client&lt;/font&gt;" style="text;html=1;align=left;verticalAlign=middle;resizable=0;points=[];autosize=1;strokeColor=none;fillColor=none;" vertex="1" parent="1">
          <mxGeometry x="147" y="349.75" width="100" height="30" as="geometry" />
        </mxCell>
        <mxCell id="T6VgyswRJ6GRHiMwATem-26" value="" style="sketch=0;html=1;fillColor=#5184F3;strokeColor=none;verticalAlign=top;labelPosition=center;verticalLabelPosition=bottom;align=center;spacingTop=-6;fontSize=11;fontStyle=1;fontColor=#999999;shape=mxgraph.gcp2.hexIcon;prIcon=compute_engine;rounded=0;dashed=1;" vertex="1" parent="1">
          <mxGeometry x="875" y="339.63" width="66" height="58.5" as="geometry" />
        </mxCell>
        <mxCell id="T6VgyswRJ6GRHiMwATem-27" value="&lt;br&gt;" style="sketch=0;html=1;fillColor=#fa6800;strokeColor=#C73500;verticalAlign=top;labelPosition=center;verticalLabelPosition=bottom;align=center;spacingTop=-6;fontSize=11;fontStyle=1;fontColor=#000000;shape=mxgraph.gcp2.hexIcon;prIcon=cloud_dataflow;rounded=0;dashed=1;" vertex="1" parent="1">
          <mxGeometry x="98.9" y="344.88" width="50" height="41.75" as="geometry" />
        </mxCell>
      </root>
    </mxGraphModel>
  </diagram>
</mxfile>
